<?xml version="1.0" encoding="iso-8859-1"?>
<!-- Uploaded to: SVG Repo, www.svgrepo.com, Generator: SVG Repo Mixer Tools -->
<svg height="800px" width="800px" version="1.1" id="Layer_1" xmlns="http://www.w3.org/2000/svg" xmlns:xlink="http://www.w3.org/1999/xlink" 
	 viewBox="0 0 512 512" xml:space="preserve">
<path style="fill:#F1ECDE;" d="M256,8.17C128.151,8.17,24.511,111.811,24.511,239.66v19.064c0,43.669,25.699,81.33,62.795,98.702
	l26.55,146.405h284.229l26.62-146.409c37.092-17.373,62.786-55.031,62.786-98.697V239.66C487.489,111.811,383.849,8.17,256,8.17z"/>
<g>
	<path style="fill:#68615B;" d="M438.94,233.693c13.814,33.351-2.023,71.585-35.374,85.399
		c-33.351,13.814-71.585-2.023-85.399-35.374L438.94,233.693z"/>
	<path style="fill:#68615B;" d="M73.089,233.693c-13.814,33.351,2.023,71.585,35.374,85.399
		c33.351,13.814,71.585-2.023,85.399-35.374L73.089,233.693z"/>
</g>
<g>
	<path style="fill:#440852;" d="M280.267,305.763c-1.095-4.378-5.533-7.038-9.909-5.945c-4.378,1.094-7.038,5.531-5.945,9.908
		l10.894,43.574c0.929,3.713,4.259,6.191,7.921,6.191c0.657,0,1.324-0.08,1.988-0.246c4.378-1.094,7.038-5.531,5.945-9.908
		L280.267,305.763z"/>
	<path style="fill:#440852;" d="M241.641,299.818c-4.379-1.094-8.813,1.566-9.909,5.945l-10.894,43.574
		c-1.094,4.377,1.567,8.813,5.945,9.908c0.666,0.167,1.332,0.246,1.988,0.246c3.66,0,6.992-2.478,7.921-6.191l10.894-43.574
		C248.679,305.349,246.019,300.913,241.641,299.818z"/>
	<path style="fill:#440852;" d="M425.464,70.195C380.199,24.929,320.015,0,256,0S131.801,24.929,86.536,70.195
		S16.34,175.644,16.34,239.66v19.064c0,45.326,25.889,84.715,63.654,104.171l25.822,142.393c0.705,3.886,4.089,6.713,8.039,6.713
		h284.229c3.949,0,7.331-2.824,8.038-6.708l25.891-142.401c37.759-19.458,63.646-58.844,63.646-104.167V239.66
		C495.66,175.644,470.731,115.46,425.464,70.195z M391.265,495.66H120.677l-22.73-125.336c9.118,2.906,18.714,4.732,28.641,5.308
		l9.683,53.402c0.705,3.886,4.089,6.713,8.039,6.713h54.496v13.617c0,4.512,3.657,8.17,8.17,8.17s8.17-3.658,8.17-8.17v-13.618
		h32.681v13.617c0,4.512,3.657,8.17,8.17,8.17s8.17-3.658,8.17-8.17v-13.617h32.681v13.617c0,4.512,3.657,8.17,8.17,8.17
		c4.513,0,8.17-3.658,8.17-8.17v-13.617h54.468c3.949,0,7.331-2.824,8.038-6.708l9.709-53.405c9.928-0.576,19.527-2.402,28.646-5.31
		L391.265,495.66z M378.553,90.639c-4.513,0-8.17,3.658-8.17,8.17v50.978c0,4.512,3.657,8.17,8.17,8.17
		c55.563,0,100.766,45.203,100.766,100.766s-45.203,100.766-100.766,100.766c-3.949,0-7.331,2.824-8.038,6.708l-9.675,53.207
		h-47.649v-13.617c0-4.512-3.657-8.17-8.17-8.17c-4.513,0-8.17,3.658-8.17,8.17v13.617H264.17v-13.617c0-4.512-3.657-8.17-8.17-8.17
		s-8.17,3.658-8.17,8.17v13.617h-32.681v-13.617c0-4.512-3.657-8.17-8.17-8.17s-8.17,3.658-8.17,8.17v13.617h-47.675l-9.647-53.202
		c-0.705-3.887-4.089-6.713-8.039-6.713c-55.563,0-100.766-45.203-100.766-100.766s45.203-100.766,100.766-100.766
		c4.513,0,8.17-3.658,8.17-8.17V98.809c0-4.512-3.657-8.17-8.17-8.17c-4.513,0-8.17,3.658-8.17,8.17v43.09
		c-35.926,2.488-67.441,21.257-87.21,48.957C60.39,91.112,149.622,16.34,256,16.34s195.61,74.772,217.933,174.516
		c-19.768-27.7-51.283-46.469-87.21-48.957v-43.09C386.723,94.297,383.066,90.639,378.553,90.639z"/>
	<path style="fill:#440852;" d="M325.715,236.821c1.728-4.169-0.252-8.948-4.422-10.675c-4.169-1.726-8.948,0.253-10.675,4.422
		c-7.517,18.147-7.517,38.133,0,56.279c7.516,18.146,21.649,32.279,39.794,39.795c9.073,3.758,18.606,5.637,28.139,5.637
		c9.533,0,19.067-1.879,28.139-5.637c37.459-15.517,55.31-58.615,39.794-96.074c-0.829-2.002-2.419-3.593-4.422-4.422
		c-2.002-0.829-4.251-0.829-6.253,0l-112.692,46.679C320.061,260.913,320.926,248.385,325.715,236.821z M433.98,244.591
		c6.919,27.095-6.968,55.946-33.54,66.953c-14.114,5.846-29.659,5.847-43.773,0c-11.566-4.79-21.034-13.035-27.294-23.624
		L433.98,244.591z"/>
	<circle style="fill:#440852;" cx="193.362" cy="117.106" r="8.17"/>
	<circle style="fill:#440852;" cx="226.043" cy="149.787" r="8.17"/>
	<path style="fill:#440852;" d="M190.735,226.146c-4.169,1.727-6.149,6.506-4.422,10.675c4.789,11.565,5.654,24.092,2.595,36.003
		L76.216,226.145c-4.166-1.724-8.947,0.252-10.675,4.422c-7.517,18.145-7.517,38.133-0.001,56.279
		c7.516,18.145,21.649,32.279,39.795,39.795c9.074,3.758,18.605,5.637,28.139,5.637c9.532,0,19.067-1.879,28.139-5.637
		c18.14-7.513,32.271-21.642,39.788-39.78c7.523-18.171,7.521-38.151,0.007-56.294C199.683,226.399,194.905,224.419,190.735,226.146
		z M155.361,311.544c-14.113,5.847-29.66,5.847-43.773,0c-14.114-5.847-25.107-16.838-30.952-30.952
		c-4.79-11.566-5.655-24.091-2.595-36.003l104.612,43.332C176.396,298.508,166.927,306.753,155.361,311.544z"/>
</g>
</svg>